# xmcd CD database file
#
# Track frame offsets:
#	150
#	843
#	21027
#	39942
#	58995
#	78130
#	97285
#
# Disc length: 1554 seconds
#
# Revision: 4
# Processed by: cddbd v1.5.2PL0 Copyright (c) Steve Scherf et al.
# Submitted via: CDex 1.70beta2
#
DISCID=46061007
DTITLE=張學友 - 當我想起你 - Only Love
DYEAR=2000
DGENRE=Chinese
TTITLE0=Computer Data, Not Playable
TTITLE1=·í§Ú·Q°_§A(°ê) (MV)
TTITLE2=Something Only Love Can Do (MV)
TTITLE3=·R¤U¥h (MV)
TTITLE4=當我想起你
TTITLE5=Something Only Love Can Do
TTITLE6=愛下去
EXTD=YEAR: 2000
EXTT0=
EXTT1=
EXTT2=
EXTT3=
EXTT4=
EXTT5=
EXTT6=
PLAYORDER=
